<?xml version="1.0" encoding="UTF-8" standalone="no"?>
<!DOCTYPE svg PUBLIC "-//W3C//DTD SVG 1.1//EN" "http://www.w3.org/Graphics/SVG/1.1/DTD/svg11.dtd">
<svg width="100%" height="100%" viewBox="0 0 160 160" version="1.1" xmlns="http://www.w3.org/2000/svg" xmlns:xlink="http://www.w3.org/1999/xlink" xml:space="preserve" xmlns:serif="http://www.serif.com/" style="fill-rule:evenodd;clip-rule:evenodd;stroke-linejoin:round;stroke-miterlimit:2;">
    <g>
        <g transform="matrix(1.35068,0,0,1.37931,-7.27394,68.4283)">
            <path d="M58.522,22.955C58.522,16.824 53.438,11.846 47.177,11.846L24.487,11.846C18.225,11.846 13.142,16.824 13.142,22.955L13.142,46.116C13.142,52.248 18.225,57.226 24.487,57.226L47.177,57.226C53.438,57.226 58.522,52.248 58.522,46.116L58.522,22.955ZM49.637,22.955L49.637,46.116C49.637,47.446 48.535,48.526 47.177,48.526L24.487,48.526C23.129,48.526 22.026,47.446 22.026,46.116C22.026,46.116 22.026,22.955 22.026,22.955C22.026,21.626 23.129,20.546 24.487,20.546L47.177,20.546C48.535,20.546 49.637,21.626 49.637,22.955Z" style="fill:rgb(184,184,184);"/>
        </g>
        <g transform="matrix(1.35068,0,0,1.37931,-7.27394,-3.69931)">
            <path d="M58.522,22.955C58.522,16.824 53.438,11.846 47.177,11.846L24.487,11.846C18.225,11.846 13.142,16.824 13.142,22.955L13.142,46.116C13.142,52.248 18.225,57.226 24.487,57.226L47.177,57.226C53.438,57.226 58.522,52.248 58.522,46.116L58.522,22.955ZM49.637,22.955L49.637,46.116C49.637,47.446 48.535,48.526 47.177,48.526L24.487,48.526C23.129,48.526 22.026,47.446 22.026,46.116C22.026,46.116 22.026,22.955 22.026,22.955C22.026,21.626 23.129,20.546 24.487,20.546L47.177,20.546C48.535,20.546 49.637,21.626 49.637,22.955Z" style="fill:rgb(184,184,184);"/>
        </g>
        <g transform="matrix(0.394651,0,0,0.394504,26.9823,30.3117)">
            <path d="M58.522,23.191C58.522,16.929 53.44,11.846 47.181,11.846L24.483,11.846C18.223,11.846 13.142,16.929 13.142,23.191L13.142,45.881C13.142,52.142 18.223,57.226 24.483,57.226L47.181,57.226C53.44,57.226 58.522,52.142 58.522,45.881L58.522,23.191Z" style="fill:rgb(184,184,184);"/>
            <path d="M58.522,23.191C58.522,16.929 53.44,11.846 47.181,11.846L24.483,11.846C18.223,11.846 13.142,16.929 13.142,23.191L13.142,45.881C13.142,52.142 18.223,57.226 24.483,57.226L47.181,57.226C53.44,57.226 58.522,52.142 58.522,45.881L58.522,23.191ZM25.811,24.52L25.811,44.552L45.852,44.552L45.852,24.52L25.811,24.52Z" style="fill:rgb(184,184,184);"/>
        </g>
        <g transform="matrix(0.394651,0,0,0.394504,26.9823,102.439)">
            <path d="M58.522,23.191C58.522,16.929 53.44,11.846 47.181,11.846L24.483,11.846C18.223,11.846 13.142,16.929 13.142,23.191L13.142,45.881C13.142,52.142 18.223,57.226 24.483,57.226L47.181,57.226C53.44,57.226 58.522,52.142 58.522,45.881L58.522,23.191Z" style="fill:rgb(184,184,184);"/>
            <path d="M58.522,23.191C58.522,16.929 53.44,11.846 47.181,11.846L24.483,11.846C18.223,11.846 13.142,16.929 13.142,23.191L13.142,45.881C13.142,52.142 18.223,57.226 24.483,57.226L47.181,57.226C53.44,57.226 58.522,52.142 58.522,45.881L58.522,23.191ZM25.811,24.52L25.811,44.552L45.852,44.552L45.852,24.52L25.811,24.52Z" style="fill:rgb(184,184,184);"/>
        </g>
        <g transform="matrix(0.45994,0,0,0.459769,79.2044,79.321)">
            <path d="M58.522,23.191C58.522,16.929 53.44,11.846 47.181,11.846L24.483,11.846C18.223,11.846 13.142,16.929 13.142,23.191L13.142,45.881C13.142,52.142 18.223,57.226 24.483,57.226L47.181,57.226C53.44,57.226 58.522,52.142 58.522,45.881L58.522,23.191Z" style="fill:rgb(184,184,184);"/>
            <path d="M58.522,23.191C58.522,16.929 53.44,11.846 47.181,11.846L24.483,11.846C18.223,11.846 13.142,16.929 13.142,23.191L13.142,45.881C13.142,52.142 18.223,57.226 24.483,57.226L47.181,57.226C53.44,57.226 58.522,52.142 58.522,45.881L58.522,23.191ZM47.651,23.191L47.651,45.881C47.651,46.14 47.44,46.351 47.181,46.351L24.483,46.351C24.223,46.351 24.013,46.14 24.013,45.881C24.013,45.881 24.013,23.191 24.013,23.191C24.013,22.931 24.223,22.721 24.483,22.721L47.181,22.721C47.44,22.721 47.651,22.931 47.651,23.191Z" style="fill:rgb(184,184,184);"/>
        </g>
        <g transform="matrix(0.45994,0,0,0.459769,79.2044,100.185)">
            <path d="M58.522,23.191C58.522,16.929 53.44,11.846 47.181,11.846L24.483,11.846C18.223,11.846 13.142,16.929 13.142,23.191L13.142,45.881C13.142,52.142 18.223,57.226 24.483,57.226L47.181,57.226C53.44,57.226 58.522,52.142 58.522,45.881L58.522,23.191Z" style="fill:rgb(184,184,184);"/>
            <path d="M58.522,23.191C58.522,16.929 53.44,11.846 47.181,11.846L24.483,11.846C18.223,11.846 13.142,16.929 13.142,23.191L13.142,45.881C13.142,52.142 18.223,57.226 24.483,57.226L47.181,57.226C53.44,57.226 58.522,52.142 58.522,45.881L58.522,23.191ZM47.651,23.191L47.651,45.881C47.651,46.14 47.44,46.351 47.181,46.351L24.483,46.351C24.223,46.351 24.013,46.14 24.013,45.881C24.013,45.881 24.013,23.191 24.013,23.191C24.013,22.931 24.223,22.721 24.483,22.721C24.483,22.721 47.181,22.721 47.181,22.721C47.44,22.721 47.651,22.931 47.651,23.191Z" style="fill:rgb(184,184,184);"/>
        </g>
        <g transform="matrix(0.45994,0,0,0.459769,100.076,100.185)">
            <path d="M58.522,23.191C58.522,16.929 53.44,11.846 47.181,11.846L24.483,11.846C18.223,11.846 13.142,16.929 13.142,23.191L13.142,45.881C13.142,52.142 18.223,57.226 24.483,57.226L47.181,57.226C53.44,57.226 58.522,52.142 58.522,45.881L58.522,23.191Z" style="fill:rgb(184,184,184);"/>
            <path d="M58.522,23.191C58.522,16.929 53.44,11.846 47.181,11.846L24.483,11.846C18.223,11.846 13.142,16.929 13.142,23.191L13.142,45.881C13.142,52.142 18.223,57.226 24.483,57.226L47.181,57.226C53.44,57.226 58.522,52.142 58.522,45.881L58.522,23.191ZM47.651,23.191L47.651,45.881C47.651,46.14 47.44,46.351 47.181,46.351L24.483,46.351C24.223,46.351 24.013,46.14 24.013,45.881C24.013,45.881 24.013,23.191 24.013,23.191C24.013,22.931 24.223,22.721 24.483,22.721C24.483,22.721 47.181,22.721 47.181,22.721C47.44,22.721 47.651,22.931 47.651,23.191Z" style="fill:rgb(184,184,184);"/>
        </g>
        <g transform="matrix(0.45994,0,0,0.459769,120.948,79.321)">
            <path d="M58.522,23.191C58.522,16.929 53.44,11.846 47.181,11.846L24.483,11.846C18.223,11.846 13.142,16.929 13.142,23.191L13.142,45.881C13.142,52.142 18.223,57.226 24.483,57.226L47.181,57.226C53.44,57.226 58.522,52.142 58.522,45.881L58.522,23.191Z" style="fill:rgb(184,184,184);"/>
            <path d="M58.522,23.191C58.522,16.929 53.44,11.846 47.181,11.846L24.483,11.846C18.223,11.846 13.142,16.929 13.142,23.191L13.142,45.881C13.142,52.142 18.223,57.226 24.483,57.226L47.181,57.226C53.44,57.226 58.522,52.142 58.522,45.881L58.522,23.191ZM47.651,23.191L47.651,45.881C47.651,46.14 47.44,46.351 47.181,46.351L24.483,46.351C24.223,46.351 24.013,46.14 24.013,45.881L24.013,23.191C24.013,22.931 24.223,22.721 24.483,22.721L47.181,22.721C47.44,22.721 47.651,22.931 47.651,23.191Z" style="fill:rgb(184,184,184);"/>
        </g>
        <g transform="matrix(0.45994,0,0,0.459769,120.948,100.185)">
            <path d="M58.522,23.191C58.522,16.929 53.44,11.846 47.181,11.846L24.483,11.846C18.223,11.846 13.142,16.929 13.142,23.191L13.142,45.881C13.142,52.142 18.223,57.226 24.483,57.226L47.181,57.226C53.44,57.226 58.522,52.142 58.522,45.881L58.522,23.191Z" style="fill:rgb(184,184,184);"/>
            <path d="M58.522,23.191C58.522,16.929 53.44,11.846 47.181,11.846L24.483,11.846C18.223,11.846 13.142,16.929 13.142,23.191L13.142,45.881C13.142,52.142 18.223,57.226 24.483,57.226L47.181,57.226C53.44,57.226 58.522,52.142 58.522,45.881L58.522,23.191ZM47.651,23.191L47.651,45.881C47.651,46.14 47.44,46.351 47.181,46.351L24.483,46.351C24.223,46.351 24.013,46.14 24.013,45.881L24.013,23.191C24.013,22.931 24.223,22.721 24.483,22.721C24.483,22.721 47.181,22.721 47.181,22.721C47.44,22.721 47.651,22.931 47.651,23.191Z" style="fill:rgb(184,184,184);"/>
        </g>
        <g transform="matrix(0.45994,0,0,0.459769,89.6404,121.05)">
            <path d="M58.522,23.191C58.522,16.929 53.44,11.846 47.181,11.846L24.483,11.846C18.223,11.846 13.142,16.929 13.142,23.191L13.142,45.881C13.142,52.142 18.223,57.226 24.483,57.226L47.181,57.226C53.44,57.226 58.522,52.142 58.522,45.881L58.522,23.191Z" style="fill:rgb(184,184,184);"/>
            <path d="M58.522,23.191C58.522,16.929 53.44,11.846 47.181,11.846L24.483,11.846C18.223,11.846 13.142,16.929 13.142,23.191L13.142,45.881C13.142,52.142 18.223,57.226 24.483,57.226L47.181,57.226C53.44,57.226 58.522,52.142 58.522,45.881L58.522,23.191ZM47.651,23.191L47.651,45.881C47.651,46.14 47.44,46.351 47.181,46.351L24.483,46.351C24.223,46.351 24.013,46.14 24.013,45.881C24.013,45.881 24.013,23.191 24.013,23.191C24.013,22.931 24.223,22.721 24.483,22.721C24.483,22.721 47.181,22.721 47.181,22.721C47.44,22.721 47.651,22.931 47.651,23.191Z" style="fill:rgb(184,184,184);"/>
        </g>
        <g transform="matrix(0.45994,0,0,0.459769,110.512,121.05)">
            <path d="M58.522,23.191C58.522,16.929 53.44,11.846 47.181,11.846L24.483,11.846C18.223,11.846 13.142,16.929 13.142,23.191L13.142,45.881C13.142,52.142 18.223,57.226 24.483,57.226L47.181,57.226C53.44,57.226 58.522,52.142 58.522,45.881L58.522,23.191Z" style="fill:rgb(184,184,184);"/>
            <path d="M58.522,23.191C58.522,16.929 53.44,11.846 47.181,11.846L24.483,11.846C18.223,11.846 13.142,16.929 13.142,23.191L13.142,45.881C13.142,52.142 18.223,57.226 24.483,57.226L47.181,57.226C53.44,57.226 58.522,52.142 58.522,45.881L58.522,23.191ZM47.651,23.191L47.651,45.881C47.651,46.14 47.44,46.351 47.181,46.351L24.483,46.351C24.223,46.351 24.013,46.14 24.013,45.881L24.013,23.191C24.013,22.931 24.223,22.721 24.483,22.721C24.483,22.721 47.181,22.721 47.181,22.721C47.44,22.721 47.651,22.931 47.651,23.191Z" style="fill:rgb(184,184,184);"/>
        </g>
        <g transform="matrix(0.394651,0,0,0.394504,103.105,30.3117)">
            <path d="M58.522,23.191C58.522,16.929 53.44,11.846 47.181,11.846L24.483,11.846C18.223,11.846 13.142,16.929 13.142,23.191L13.142,45.881C13.142,52.142 18.223,57.226 24.483,57.226L47.181,57.226C53.44,57.226 58.522,52.142 58.522,45.881L58.522,23.191Z" style="fill:rgb(184,184,184);"/>
            <path d="M58.522,23.191C58.522,16.929 53.44,11.846 47.181,11.846L24.483,11.846C18.223,11.846 13.142,16.929 13.142,23.191L13.142,45.881C13.142,52.142 18.223,57.226 24.483,57.226L47.181,57.226C53.44,57.226 58.522,52.142 58.522,45.881L58.522,23.191ZM25.811,24.52L25.811,44.552L45.852,44.552L45.852,24.52L25.811,24.52Z" style="fill:rgb(184,184,184);"/>
        </g>
        <g transform="matrix(1.35068,0,0,1.37931,68.8485,-3.69931)">
            <path d="M58.522,22.955C58.522,16.824 53.438,11.846 47.177,11.846L24.487,11.846C18.225,11.846 13.142,16.824 13.142,22.955L13.142,46.116C13.142,52.248 18.225,57.226 24.487,57.226L47.177,57.226C53.438,57.226 58.522,52.248 58.522,46.116L58.522,22.955ZM49.637,22.955L49.637,46.116C49.637,47.446 48.535,48.526 47.177,48.526L24.487,48.526C23.129,48.526 22.026,47.446 22.026,46.116L22.026,22.955C22.026,21.626 23.129,20.546 24.487,20.546L47.177,20.546C48.535,20.546 49.637,21.626 49.637,22.955Z" style="fill:rgb(184,184,184);"/>
        </g>
    </g>
</svg>
