<?xml version="1.0" encoding="UTF-8" standalone="no"?>
<!DOCTYPE svg PUBLIC "-//W3C//DTD SVG 1.1//EN" "http://www.w3.org/Graphics/SVG/1.1/DTD/svg11.dtd">
<svg width="100%" height="100%" viewBox="0 0 367 270" version="1.1" xmlns="http://www.w3.org/2000/svg" xmlns:xlink="http://www.w3.org/1999/xlink" xml:space="preserve" xmlns:serif="http://www.serif.com/" style="fill-rule:evenodd;clip-rule:evenodd;stroke-linejoin:round;stroke-miterlimit:2;">
    <g transform="matrix(1,0,0,1,-5003.35,-1935.65)">
        <g>
            <path d="M5281.07,1935.65C5330.2,1935.65 5370.03,1975.48 5370.03,2024.61C5370.03,2059.37 5350.1,2089.47 5321.03,2104.11C5351.33,2130.14 5370.03,2165.92 5370.03,2205.42L5306.82,2205.42C5306.82,2155.53 5259.23,2115.09 5200.53,2115.09C5181.26,2115.09 5162.36,2119.54 5145.84,2127.96L5113.31,2081.89C5135.69,2070.48 5160.81,2063.65 5186.69,2061.85L5186.69,2061.37L5281.07,2061.37L5281.07,2061.14C5301.24,2061.14 5317.6,2044.78 5317.6,2024.61C5317.6,2004.44 5301.24,1988.08 5281.07,1988.08L5281.07,1987.86L5052.55,1987.86L5003.35,1935.65L5281.07,1935.65Z" style="fill:white;"/>
            <g transform="matrix(9.52815e-17,-1.55607,1.83104,1.12119e-16,1275.16,11152.2)">
                <clipPath id="_clip1">
                    <rect x="5749.59" y="2051.22" width="92.575" height="185.15"/>
                </clipPath>
                <g clip-path="url(#_clip1)">
                    <path d="M5829.26,2096.64C5812.6,2068.49 5782.31,2051.22 5749.59,2051.22L5749.59,2085.74C5770.11,2085.74 5789.1,2096.57 5799.55,2114.23L5829.26,2096.64Z" style="fill:rgb(71,195,207);"/>
                </g>
            </g>
        </g>
    </g>
</svg>
